<svg width="200" viewBox="75 0 50 200" height="200" fill="none" xmlns="http://www.w3.org/2000/svg">
  <path d="M200 71c0 3-59-34-103-34S2 74 2 71c0-4 51-44 95-44s103 40 103 44ZM199 130c0-4-59 34-103 34S1 126 1 130s51 44 95 44 103-40 103-44ZM147 98c0 12-23 26-47 26s-46-11-46-24 20-23 44-23c23 0 49 8 49 21Z" fill="#000"/>
  <path d="M137 98c0 12-18 24-38 24-19 0-37-11-37-23 0-11 16-21 35-21s40 9 40 20Z" fill="#FFDA77"/>
  <path d="M129 100c0 12-16 23-31 23s-29-11-29-23 13-23 28-23 32 11 32 23Z" fill="#000"/>
  <path d="M56 99c0 22 41 24 37 24-5 0-44-2-44-24 0-21 39-22 44-22 4 0-37 1-37 22ZM144 99c0 22-41 24-37 24 5 0 44-2 44-24 0-21-39-22-44-22-4 0 37 1 37 22Z" fill="#FFDA77"/>
  <ellipse cx="99" cy="100.5" rx="8" ry="60.5" fill="#9A0001"/>
</svg>
