<svg width="200" height="200" viewBox="0 0 200 200" fill="none" xmlns="http://www.w3.org/2000/svg">
<path d="M200 70.5C200 74.366 141.459 37 97 37C52.5411 37 2 74.366 2 70.5C2 66.634 52.5411 27 97 27C141.459 27 200 66.634 200 70.5Z" fill="black"/>
<path d="M199 130.281C199 126.415 140.459 163.781 96 163.781C51.5411 163.781 1 126.415 1 130.281C1 134.147 51.5411 173.781 96 173.781C140.459 173.781 199 134.147 199 130.281Z" fill="black"/>
<path d="M147 97.7684C147 110.337 123.631 123.5 100 123.5C76.3689 123.5 54.3396 112.569 54.3396 100C54.3396 87.4312 74.1823 76.7421 97.8134 76.7421C121.444 76.7421 147 85.1996 147 97.7684Z" fill="black"/>
<path d="M137 98.3789C137 110.146 118.508 122 99.244 122C79.9795 122 62 111.072 62 99.3053C62 87.5387 77.6169 78 96.8814 78C116.146 78 137 86.6124 137 98.3789Z" fill="#FFDA77"/>
<path d="M129 99.8809C129 112.246 113.12 123 98.0735 123C83.0268 123 69 112.246 69 99.8809C69 87.5158 81.6345 77 96.6812 77C111.728 77 129 87.5158 129 99.8809Z" fill="black"/>
<path d="M55.9498 99.2581C55.9498 120.566 97.3204 123 92.6292 123C87.938 123 49 120.566 49 99.2581C49 77.9506 87.938 77 92.6292 77C97.3204 77 55.9498 77.9506 55.9498 99.2581Z" fill="#FFDA77"/>
<path d="M144.05 99.2581C144.05 120.566 102.68 123 107.371 123C112.062 123 151 120.566 151 99.2581C151 77.9506 112.062 77 107.371 77C102.68 77 144.05 77.9506 144.05 99.2581Z" fill="#FFDA77"/>
<ellipse cx="99" cy="100.5" rx="8" ry="60.5" fill="#9A0001"/>
</svg>
